<!-- icon666.com - MILLIONS OF FREE VECTOR ICONS --><svg viewBox="0 -12 496 496" xmlns="http://www.w3.org/2000/svg"><path d="m487.902344 373.355469c5.371094-18.824219 8.097656-38.289063 8.097656-57.832031 0-35.121094-8.886719-69.976563-25.703125-100.808594-15.882813-29.109375-39.144531-53.800782-67.265625-71.375l-21.152344-13.214844c-26.6875-47.367188-64.230468-88.855469-108.765625-120.03125l-5.96875-4.179688c-11.28125-7.886718-27-7.886718-38.28125 0l-5.96875 4.179688c-44.535156 31.175781-82.078125 72.664062-108.765625 120.03125l-21.152344 13.214844c-28.128906 17.585937-51.382812 42.265625-67.265624 71.375-16.824219 30.832031-25.710938 65.6875-25.710938 100.808594 0 19.542968 2.726562 39.007812 8.097656 57.832031l5.292969 18.527343h-13.390625v80h496v-80h-13.390625zm-67.132813 18.527343c13.308594-24.96875 33.476563-45.320312 58.335938-58.789062-1.097657 12.117188-3.242188 24.132812-6.59375 35.871094l-6.550781 22.917968zm-60.769531-25.503906v25.503906h-3.71875l-7.457031-11.175781c-17.25-25.871093-37.441407-49.296875-60.199219-70.101562 10.175781-36.785157 15.375-74.761719 15.375-112.960938v-34.328125c10.585938 17.769532 19.871094 36.328125 27.566406 55.542969l14.859375-5.953125c-7.683593-19.167969-16.929687-37.695312-27.378906-55.503906 24.65625 15.867187 44.105469 38.839844 55.472656 66.121094 11.601563 27.847656 17.480469 57.25 17.480469 87.417968 0 21.117188-2.945312 42.125-8.753906 62.429688l-5.285156 18.511718h-1.960938v-25.503906c0-43.894531-6.953125-87.292968-20.664062-128.992187l-15.199219 5c13.175781 40.074219 19.863281 81.792969 19.863281 123.992187zm-176 73.503906h128v16h-128zm128-16h-128v-16h128zm-114.824219-32c12.191407-22.152343 29.558594-40.894531 50.824219-54.574218 21.265625 13.6875 38.640625 32.429687 50.824219 54.574218zm119.769531 0-.929687-1.847656c-14.335937-28.664062-36.429687-52.527344-63.894531-69.007812l-4.121094-2.472656-4.121094 2.472656c-27.472656 16.480468-49.558594 40.34375-63.894531 69.007812l-.929687 1.847656h-20.109376l1.535157-2.304687c23.703125-35.566406 53.167969-66.351563 87.511719-91.703125 34.351562 25.359375 63.808593 56.144531 87.511718 91.703125l1.550782 2.304687zm-176.28125-154.496093c-13.710937 41.6875-20.664062 85.089843-20.664062 128.992187v25.503906h-1.960938l-5.285156-18.511718c-5.808594-20.3125-8.753906-41.320313-8.753906-62.429688 0-30.167968 5.878906-59.570312 17.480469-87.410156 11.367187-27.277344 30.816406-50.261719 55.472656-66.128906-10.449219 17.808594-19.707031 36.335937-27.378906 55.503906l14.859375 5.953125c7.695312-19.214844 16.992187-37.773437 27.566406-55.542969v34.328125c0 38.199219 5.199219 76.175781 15.375 112.953125-22.757812 20.8125-42.960938 44.230469-60.199219 70.101563l-7.457031 11.183593h-3.71875v-25.503906c0-42.191406 6.6875-83.910156 19.863281-123.992187zm-47.671874 154.496093c-15.9375-34.015624-42.960938-61.039062-76.976563-76.984374.015625-5.40625.335937-10.789063.800781-16.167969l1.464844.417969c27 7.703124 51.773438 22.253906 71.695312 42.054687 1.542969 12.34375 3.945313 24.570313 7.375 36.554687l4.039063 14.125zm-4.734376-73.671874c-19.25-15.765626-41.585937-27.605469-65.570312-34.453126l-3.800781-1.089843c.160156-.929688.265625-1.863281.441406-2.785157h70.71875c-1.320313 10.25-2.046875 20.609376-2.046875 31.058594 0 2.429688.183594 4.847656.257812 7.269532zm199.742188-195.269532v74.703125c0 34.183594-4.335938 68.175781-12.808594 101.238281-6.222656-5.183593-12.617187-10.191406-19.191406-15v-258.136718c31.265625 28.296875 50.808594 67.128906 55.089844 108.738281zm-48-97.195312v258.136718c-6.574219 4.800782-12.96875 9.816407-19.191406 14.992188-8.472656-33.054688-12.808594-67.054688-12.808594-101.230469v-74.703125l-23.089844 11.542969c4.28125-41.601563 23.824219-80.441406 55.089844-108.738281zm165.960938 254.136718h70.71875c.175781.929688.28125 1.863282.441406 2.792969l-3.792969 1.089844c-23.984375 6.847656-46.320313 18.6875-65.574219 34.453125.0625-2.429688.246094-4.847656.246094-7.277344 0-10.449218-.726562-20.808594-2.039062-31.058594zm-7.320313 97.875c3.421875-11.984374 5.824219-24.21875 7.375-36.554687 19.929687-19.800781 44.695313-34.351563 71.703125-42.054687l1.457031-.417969c.472657 5.378906.785157 10.761719.800781 16.167969-34.015624 15.945312-61.039062 42.96875-76.976562 76.984374h-8.398438zm-4.097656-220.851562c25.800781 16.128906 47.136719 38.769531 61.703125 65.472656 7.179687 13.144532 12.707031 27.113282 16.675781 41.503906h-69.507813c-3.125-15.855468-7.828124-31.398437-14.125-46.511718-1.601562-3.839844-3.410156-7.558594-5.289062-11.238282v-55.816406zm-26.542969-18.832031v42.738281c-11.160156-14.433594-24.777344-26.847656-40.207031-36.792969-1.425781-33.527343-11.863281-65.832031-29.890625-93.582031 27.839844 25.238281 51.691406 54.941406 70.097656 87.636719zm-169.894531-87.636719c-18.035157 27.75-28.464844 60.046875-29.890625 93.582031-15.429688 9.945313-29.046875 22.359375-40.207032 36.792969v-42.738281c18.398438-32.695313 42.25-62.398438 70.097657-87.636719zm-158.351563 171.941406c14.566406-26.703125 35.902344-49.34375 61.703125-65.472656l10.542969-6.589844v55.816406c-1.878906 3.679688-3.6875 7.398438-5.289062 11.238282-6.296876 15.113281-11 30.65625-14.125 46.511718h-69.507813c3.960937-14.390624 9.496094-28.351562 16.675781-41.503906zm-16.265625 146.585938c-3.351562-11.746094-5.488281-23.761719-6.59375-35.871094 24.859375 13.46875 45.027344 33.820312 58.335938 58.789062h-45.191407zm-7.488281 38.917968h152v48h-152zm464 48h-152v-48h152zm0 0"></path></svg>