<svg xmlns="http://www.w3.org/2000/svg" viewBox="0 0 100 125" x="0px" y="0px"><defs><style>.cls-1{fill:none;}</style></defs><title>Asset 650</title><g data-name="Layer 2"><g data-name="Layer 1"><rect class="cls-1" width="100" height="100"/><polygon points="34.25 33.97 33.05 33.97 33.05 28.18 30.94 28.18 30.94 33.97 29.73 33.97 29.73 26.98 34.25 26.98 34.25 33.97"/><path d="M36.23,38.89H27.76V36.65A3.63,3.63,0,0,1,31.39,33H32.6a3.63,3.63,0,0,1,3.63,3.63ZM29,37.69H35v-1a2.43,2.43,0,0,0-2.43-2.43H31.39A2.43,2.43,0,0,0,29,36.65Z"/><path d="M34.88,28.18h-1v-.6h-.17V26.32c0-.68-.77-1.26-1.68-1.26s-1.68.58-1.68,1.26v1.86H29.11V26.32A2.69,2.69,0,0,1,32,23.86a2.7,2.7,0,0,1,2.89,2.46Z"/><rect x="31.39" y="20.62" width="1.2" height="3.85"/><polygon points="70.26 33.97 69.06 33.97 69.06 28.18 66.94 28.18 66.94 33.97 65.74 33.97 65.74 26.98 70.26 26.98 70.26 33.97"/><path d="M72.24,38.89H63.77V36.65A3.62,3.62,0,0,1,67.39,33h1.22a3.63,3.63,0,0,1,3.63,3.63ZM65,37.69H71v-1a2.43,2.43,0,0,0-2.42-2.43H67.39A2.43,2.43,0,0,0,65,36.65Z"/><path d="M70.88,28.18h-1v-.6h-.16V26.32c0-.68-.77-1.26-1.68-1.26s-1.68.58-1.68,1.26v1.86H65.12V26.32a2.92,2.92,0,0,1,5.76,0Z"/><rect x="67.4" y="20.62" width="1.2" height="3.85"/><path d="M76.41,98H63.88V86.92a14.5,14.5,0,0,0-5.29-11.25,100.42,100.42,0,0,1-8.11-7.81,65.32,65.32,0,0,1-8.17,7.82A14.21,14.21,0,0,0,37,86.92V98H23.53V96.8h12.3V86.92a15.42,15.42,0,0,1,5.74-12.19A63.66,63.66,0,0,0,50,66.57l.44-.52.47.5a102.37,102.37,0,0,0,8.44,8.19,15.7,15.7,0,0,1,5.73,12.18V96.8H76.41Z"/><path d="M31.73,71H26.92V67.06a2.69,2.69,0,0,1,2.41-2.9,2.69,2.69,0,0,1,2.4,2.9Zm-3.61-1.21h2.41V67.06c0-.92-.55-1.69-1.2-1.69s-1.21.77-1.21,1.69Z"/><path d="M31.73,82.84H26.92V78.9A2.69,2.69,0,0,1,29.33,76a2.69,2.69,0,0,1,2.4,2.9Zm-3.61-1.21h2.41V78.9c0-.92-.55-1.7-1.2-1.7s-1.21.78-1.21,1.7Z"/><path d="M31.73,94.67H26.92V90.74a2.69,2.69,0,0,1,2.41-2.9,2.69,2.69,0,0,1,2.4,2.9Zm-3.61-1.2h2.41V90.74c0-.92-.55-1.7-1.2-1.7s-1.21.78-1.21,1.7Z"/><path d="M73.08,71H68.26V67.06a2.45,2.45,0,1,1,4.82,0Zm-3.61-1.21h2.4V67.06c0-.92-.55-1.69-1.2-1.69s-1.2.77-1.2,1.69Z"/><path d="M73.08,82.84H68.26V78.9a2.45,2.45,0,1,1,4.82,0Zm-3.61-1.21h2.4V78.9c0-.92-.55-1.7-1.2-1.7s-1.2.78-1.2,1.7Z"/><path d="M73.08,94.67H68.26V90.74a2.45,2.45,0,1,1,4.82,0Zm-3.61-1.2h2.4V90.74c0-.92-.55-1.7-1.2-1.7s-1.2.78-1.2,1.7Z"/><path d="M29,48.23h-1.2V46.39a.67.67,0,1,0-1.34,0v1.84h-1.2V46.39a1.87,1.87,0,0,1,3.74,0Z"/><path d="M34.1,48.23H32.89V46.39a.67.67,0,1,0-1.33,0v1.84h-1.2V46.39a1.87,1.87,0,0,1,3.74,0Z"/><path d="M39.17,48.23H38V46.39a.67.67,0,1,0-1.33,0v1.84h-1.2V46.39a1.87,1.87,0,1,1,3.73,0Z"/><path d="M44.25,48.23h-1.2V46.39a.67.67,0,0,0-.67-.67.66.66,0,0,0-.66.67v1.84H40.51V46.39a1.87,1.87,0,1,1,3.74,0Z"/><path d="M49.33,48.23H48.12V46.39a.66.66,0,0,0-.66-.67.67.67,0,0,0-.67.67v1.84h-1.2V46.39a1.87,1.87,0,1,1,3.74,0Z"/><path d="M54.41,48.23H53.2V46.39a.67.67,0,1,0-1.33,0v1.84h-1.2V46.39a1.87,1.87,0,1,1,3.74,0Z"/><path d="M59.48,48.23h-1.2V46.39a.67.67,0,1,0-1.33,0v1.84H55.74V46.39a1.87,1.87,0,0,1,3.74,0Z"/><path d="M64.56,48.23h-1.2V46.39a.67.67,0,1,0-1.34,0v1.84h-1.2V46.39a1.87,1.87,0,0,1,3.74,0Z"/><path d="M69.64,48.23H68.43V46.39a.67.67,0,1,0-1.33,0v1.84H65.9V46.39a1.87,1.87,0,0,1,3.74,0Z"/><path d="M74.71,48.23h-1.2V46.39a.67.67,0,1,0-1.33,0v1.84H71V46.39a1.87,1.87,0,1,1,3.73,0Z"/><path d="M39,70a2.84,2.84,0,1,1,2.84-2.84A2.84,2.84,0,0,1,39,70Zm0-4.47a1.64,1.64,0,0,0,0,3.27,1.64,1.64,0,1,0,0-3.27Z"/><path d="M61,70a2.84,2.84,0,1,1,2.84-2.84A2.84,2.84,0,0,1,61,70Zm0-4.47a1.64,1.64,0,0,0,0,3.27,1.64,1.64,0,1,0,0-3.27Z"/><rect x="27.09" y="56.67" width="45.82" height="1.2"/><rect x="27.09" y="60.75" width="45.82" height="1.2"/><rect x="25.93" y="47.66" width="48.14" height="1.2"/><rect x="23.61" y="41.57" width="52.77" height="1.2"/><rect x="23.61" y="37.69" width="52.77" height="1.2"/><path d="M36.47,57.08h-1.2V54.65a2.14,2.14,0,0,0-1-1.73c-.52-.38-1.11-.89-1.5-1.23a12.68,12.68,0,0,1-1.53,1.23,2.12,2.12,0,0,0-.93,1.73v2.43H29.15V54.65a3.29,3.29,0,0,1,1.47-2.72,12.77,12.77,0,0,0,1.76-1.49l.41-.43.44.41A21.13,21.13,0,0,0,35,51.94a3.34,3.34,0,0,1,1.45,2.71Z"/><path d="M45.06,57.08h-1.2V54.65a2.14,2.14,0,0,0-1-1.73c-.52-.38-1.11-.89-1.49-1.23a13.52,13.52,0,0,1-1.53,1.23A2.1,2.1,0,0,0,39,54.65v2.43h-1.2V54.65a3.28,3.28,0,0,1,1.46-2.72A12.1,12.1,0,0,0,41,50.44l.42-.43.43.41a21.13,21.13,0,0,0,1.79,1.52,3.34,3.34,0,0,1,1.45,2.71Z"/><path d="M62.25,57.08h-1.2V54.65a2.14,2.14,0,0,0-.95-1.73c-.52-.38-1.11-.89-1.5-1.23a12.68,12.68,0,0,1-1.53,1.23,2.12,2.12,0,0,0-.93,1.73v2.43H54.93V54.65a3.29,3.29,0,0,1,1.47-2.72,12.77,12.77,0,0,0,1.76-1.49l.41-.43.44.41a21.13,21.13,0,0,0,1.79,1.52,3.34,3.34,0,0,1,1.45,2.71Z"/><path d="M70.84,57.08h-1.2V54.65a2.14,2.14,0,0,0-1-1.73c-.52-.38-1.11-.89-1.49-1.23a13.52,13.52,0,0,1-1.53,1.23,2.1,2.1,0,0,0-.94,1.73v2.43h-1.2V54.65A3.28,3.28,0,0,1,65,51.93a12.77,12.77,0,0,0,1.76-1.49l.42-.43.43.41a21.13,21.13,0,0,0,1.79,1.52,3.34,3.34,0,0,1,1.45,2.71Z"/><path d="M50,55.85a3,3,0,1,1,3-3A3,3,0,0,1,50,55.85ZM50,51a1.82,1.82,0,1,0,1.82,1.81A1.81,1.81,0,0,0,50,51Z"/><rect x="43.86" y="47.66" width="1.2" height="7.4"/><rect x="54.93" y="47.66" width="1.2" height="7.4"/><rect x="10.18" y="58.21" width="16.86" height="1.2"/><path d="M24.72,98H12.66V60.8H24.72ZM13.86,96.8h9.66V62H13.86Z"/><polygon points="22.54 27.42 21.34 27.42 21.34 15.48 16.04 15.48 16.04 27.42 14.84 27.42 14.84 14.28 22.54 14.28 22.54 27.42"/><path d="M27.67,62h-18V53a9,9,0,1,1,18,0Zm-16.76-1.2H26.47V53a7.78,7.78,0,1,0-15.56,0Z"/><path d="M26.41,36.47H11V33.84a7.72,7.72,0,0,1,15.44,0Zm-14.23-1.2h13V33.84a6.52,6.52,0,1,0-13,0Z"/><path d="M23.76,15.49H22.3V14.28h.26V12.42c0-1.68-1.74-3-3.87-3s-3.87,1.36-3.87,3v1.86h.59v1.21H13.62V12.42c0-2.34,2.27-4.25,5.07-4.25s5.07,1.91,5.07,4.25Z"/><path d="M18.69,9.26a.6.6,0,0,1-.6-.6V2.6a.6.6,0,1,1,1.2,0V8.66A.6.6,0,0,1,18.69,9.26Z"/><rect x="72.95" y="58.21" width="16.86" height="1.2"/><path d="M87.34,98H75.28V60.8H87.34ZM76.48,96.8h9.66V62H76.48Z"/><rect x="22.95" y="35.79" width="1.2" height="10.64"/><rect x="13.23" y="35.79" width="1.2" height="10.64"/><rect x="85.57" y="35.79" width="1.2" height="10.64"/><rect x="75.85" y="35.79" width="1.2" height="10.64"/><polygon points="85.16 27.42 83.96 27.42 83.96 15.48 78.66 15.48 78.66 27.42 77.46 27.42 77.46 14.28 85.16 14.28 85.16 27.42"/><path d="M90.29,62h-18V53a9,9,0,0,1,18,0Zm-16.76-1.2H89.09V53a7.78,7.78,0,1,0-15.56,0Z"/><path d="M89,36.47H73.59V33.84a7.72,7.72,0,1,1,15.44,0Zm-14.24-1.2h13V33.84a6.52,6.52,0,1,0-13,0Z"/><path d="M86.38,15.49H84.92V14.28h.26V12.42c0-1.68-1.74-3-3.87-3s-3.87,1.36-3.87,3v1.86H78v1.21H76.24V12.42c0-2.34,2.27-4.25,5.07-4.25s5.07,1.91,5.07,4.25Z"/><path d="M81.16,9.26a.6.6,0,0,1-.6-.6V2.6a.6.6,0,1,1,1.2,0V8.66A.6.6,0,0,1,81.16,9.26Z"/><rect x="33.92" y="96.8" width="32.15" height="1.2"/></g></g><text x="0" y="115" fill="#000000" font-size="5px" font-weight="bold" font-family="'Helvetica Neue', Helvetica, Arial-Unicode, Arial, Sans-serif">Created by Prashanth Rapolu</text><text x="0" y="120" fill="#000000" font-size="5px" font-weight="bold" font-family="'Helvetica Neue', Helvetica, Arial-Unicode, Arial, Sans-serif">from the Noun Project</text></svg>