<?xml version="1.0" encoding="UTF-8"?>
<svg id="Layer_2" data-name="Layer 2" xmlns="http://www.w3.org/2000/svg" viewBox="0 0 13.7 44.68">
  <defs>
    <style>
      .cls-1 {
        fill: #f47a20;
      }
      .cls-2 {
        fill:rgb(248, 246, 242);
      }     

    </style>
  </defs>
  <g id="Layer_1-2" data-name="Layer 1">
    <path class="cls-1" d="m3.8,0h9.91v44.68H3.8c-2.04,0-3.7-1.66-3.7-3.7V3.7C.09,1.66,1.75,0,3.8,0Z"/>
    <g>
      <path class="cls-2" d="m1.33,30c0,.64-.52,1.15-1.16,1.15-.05,0-.11,0-.17-.01v-2.27c.05-.01.11-.01.17-.01.64,0,1.16.51,1.16,1.15Z"/>
      <path class="cls-2" d="m1.33,24.53c0,.64-.52,1.15-1.16,1.15-.05,0-.11,0-.17-.01v-2.27c.05-.01.11-.01.17-.01.64,0,1.16.51,1.16,1.15Z"/>
      <path class="cls-2" d="m1.33,19.05c0,.64-.52,1.15-1.16,1.15-.05,0-.11,0-.17-.01v-2.27c.05-.01.11-.01.17-.01.64,0,1.16.51,1.16,1.15Z"/>
      <path class="cls-2" d="m1.33,13.57c0,.64-.52,1.15-1.16,1.15-.05,0-.11,0-.17-.01v-2.27c.05-.01.11-.01.17-.01.64,0,1.16.51,1.16,1.15Z"/>
    </g>
  </g>
</svg>